<svg width="360" height="360" viewBox="0 0 360 360" fill="none" xmlns="http://www.w3.org/2000/svg">
<g clip-path="url(#clip0_1925_12520)">
<path d="M179.996 208.736C195.868 208.736 208.735 195.869 208.735 179.997C208.735 164.125 195.868 151.258 179.996 151.258C164.125 151.258 151.258 164.125 151.258 179.997C151.258 195.869 164.125 208.736 179.996 208.736Z" fill="#1FE627"/>
<path opacity="0.8" d="M226.888 157.317C240.254 157.317 251.09 146.481 251.09 133.115C251.09 119.749 240.254 108.914 226.888 108.914C213.523 108.914 202.688 119.749 202.688 133.115C202.688 146.481 213.523 157.317 226.888 157.317Z" fill="#1FE627"/>
<path opacity="0.6" d="M269.237 108.904C279.261 108.904 287.387 100.777 287.387 90.7525C287.387 80.728 279.261 72.6016 269.237 72.6016C259.212 72.6016 251.086 80.728 251.086 90.7525C251.086 100.777 259.212 108.904 269.237 108.904Z" fill="#1FE627"/>
<path opacity="0.8" d="M180.007 117.983C190.867 117.983 199.67 109.18 199.67 98.3198C199.67 87.4599 190.867 78.6562 180.007 78.6562C169.147 78.6562 160.344 87.4599 160.344 98.3198C160.344 109.18 169.147 117.983 180.007 117.983Z" fill="#1FE627"/>
<path opacity="0.8" d="M180.007 281.343C190.867 281.343 199.67 272.539 199.67 261.679C199.67 250.819 190.867 242.016 180.007 242.016C169.147 242.016 160.344 250.819 160.344 261.679C160.344 272.539 169.147 281.343 180.007 281.343Z" fill="#1FE627"/>
<path opacity="0.8" d="M117.983 180.001C117.983 169.141 109.179 160.337 98.3195 160.337C87.4598 160.337 78.6562 169.141 78.6562 180.001C78.6562 190.86 87.4598 199.664 98.3195 199.664C109.179 199.664 117.983 190.86 117.983 180.001Z" fill="#1FE627"/>
<path opacity="0.8" d="M281.342 180.001C281.342 169.141 272.539 160.337 261.679 160.337C250.819 160.337 242.016 169.141 242.016 180.001C242.016 190.86 250.819 199.664 261.679 199.664C272.539 199.664 281.342 190.86 281.342 180.001Z" fill="#1FE627"/>
<path opacity="0.6" d="M269.237 287.396C279.261 287.396 287.387 279.269 287.387 269.245C287.387 259.22 279.261 251.094 269.237 251.094C259.212 251.094 251.086 259.22 251.086 269.245C251.086 279.269 259.212 287.396 269.237 287.396Z" fill="#1FE627"/>
<path opacity="0.6" d="M308.563 66.5564C316.917 66.5564 323.689 59.7843 323.689 51.4305C323.689 43.0768 316.917 36.3047 308.563 36.3047C300.209 36.3047 293.438 43.0768 293.438 51.4305C293.438 59.7843 300.209 66.5564 308.563 66.5564Z" fill="#1FE627"/>
<path opacity="0.6" d="M296.469 151.259C304.823 151.259 311.595 144.487 311.595 136.134C311.595 127.78 304.823 121.008 296.469 121.008C288.116 121.008 281.344 127.78 281.344 136.134C281.344 144.487 288.116 151.259 296.469 151.259Z" fill="#1FE627"/>
<path opacity="0.6" d="M296.469 238.994C304.823 238.994 311.595 232.222 311.595 223.868C311.595 215.514 304.823 208.742 296.469 208.742C288.116 208.742 281.344 215.514 281.344 223.868C281.344 232.222 288.116 238.994 296.469 238.994Z" fill="#1FE627"/>
<path opacity="0.6" d="M63.5319 151.259C71.8855 151.259 78.6575 144.487 78.6575 136.134C78.6575 127.78 71.8855 121.008 63.5319 121.008C55.1782 121.008 48.4062 127.78 48.4062 136.134C48.4062 144.487 55.1782 151.259 63.5319 151.259Z" fill="#1FE627"/>
<path opacity="0.6" d="M63.5319 238.994C71.8855 238.994 78.6575 232.222 78.6575 223.868C78.6575 215.514 71.8855 208.742 63.5319 208.742C55.1782 208.742 48.4062 215.514 48.4062 223.868C48.4062 232.222 55.1782 238.994 63.5319 238.994Z" fill="#1FE627"/>
<path opacity="0.6" d="M223.868 78.6579C232.221 78.6579 238.993 71.8859 238.993 63.5321C238.993 55.1783 232.221 48.4062 223.868 48.4062C215.514 48.4062 208.742 55.1783 208.742 63.5321C208.742 71.8859 215.514 78.6579 223.868 78.6579Z" fill="#1FE627"/>
<path opacity="0.6" d="M223.868 311.603C232.221 311.603 238.993 304.831 238.993 296.477C238.993 288.124 232.221 281.352 223.868 281.352C215.514 281.352 208.742 288.124 208.742 296.477C208.742 304.831 215.514 311.603 223.868 311.603Z" fill="#1FE627"/>
<path opacity="0.6" d="M136.133 78.6579C144.487 78.6579 151.259 71.8859 151.259 63.5321C151.259 55.1783 144.487 48.4062 136.133 48.4062C127.78 48.4062 121.008 55.1783 121.008 63.5321C121.008 71.8859 127.78 78.6579 136.133 78.6579Z" fill="#1FE627"/>
<path opacity="0.6" d="M136.133 311.603C144.487 311.603 151.259 304.831 151.259 296.477C151.259 288.124 144.487 281.352 136.133 281.352C127.78 281.352 121.008 288.124 121.008 296.477C121.008 304.831 127.78 311.603 136.133 311.603Z" fill="#1FE627"/>
<path opacity="0.6" d="M308.563 323.697C316.917 323.697 323.689 316.925 323.689 308.571C323.689 300.217 316.917 293.445 308.563 293.445C300.209 293.445 293.438 300.217 293.438 308.571C293.438 316.925 300.209 323.697 308.563 323.697Z" fill="#1FE627"/>
<path opacity="0.32" d="M341.849 27.2212C346.861 27.2212 350.924 23.158 350.924 18.1458C350.924 13.1335 346.861 9.07031 341.849 9.07031C336.837 9.07031 332.773 13.1335 332.773 18.1458C332.773 23.158 336.837 27.2212 341.849 27.2212Z" fill="#1FE627"/>
<path opacity="0.32" d="M341.849 350.924C346.861 350.924 350.924 346.861 350.924 341.849C350.924 336.837 346.861 332.773 341.849 332.773C336.837 332.773 332.773 336.837 332.773 341.849C332.773 346.861 336.837 350.924 341.849 350.924Z" fill="#1FE627"/>
<path opacity="0.32" d="M350.927 302.526C355.939 302.526 360.002 298.463 360.002 293.45C360.002 288.438 355.939 284.375 350.927 284.375C345.915 284.375 341.852 288.438 341.852 293.45C341.852 298.463 345.915 302.526 350.927 302.526Z" fill="#1FE627"/>
<path opacity="0.32" d="M9.07538 302.526C14.0876 302.526 18.1508 298.463 18.1508 293.45C18.1508 288.438 14.0876 284.375 9.07538 284.375C4.06319 284.375 0 288.438 0 293.45C0 298.463 4.06319 302.526 9.07538 302.526Z" fill="#1FE627"/>
<path opacity="0.32" d="M350.927 75.6353C355.939 75.6353 360.002 71.5721 360.002 66.5598C360.002 61.5476 355.939 57.4844 350.927 57.4844C345.915 57.4844 341.852 61.5476 341.852 66.5598C341.852 71.5721 345.915 75.6353 350.927 75.6353Z" fill="#1FE627"/>
<path opacity="0.32" d="M9.07538 75.6353C14.0876 75.6353 18.1508 71.5721 18.1508 66.5598C18.1508 61.5476 14.0876 57.4844 9.07538 57.4844C4.06319 57.4844 0 61.5476 0 66.5598C0 71.5721 4.06319 75.6353 9.07538 75.6353Z" fill="#1FE627"/>
<path opacity="0.32" d="M293.443 360.002C298.455 360.002 302.518 355.939 302.518 350.927C302.518 345.915 298.455 341.852 293.443 341.852C288.43 341.852 284.367 345.915 284.367 350.927C284.367 355.939 288.43 360.002 293.443 360.002Z" fill="#1FE627"/>
<path opacity="0.32" d="M66.5598 360.002C71.572 360.002 75.6352 355.939 75.6352 350.927C75.6352 345.915 71.572 341.852 66.5598 341.852C61.5476 341.852 57.4844 345.915 57.4844 350.927C57.4844 355.939 61.5476 360.002 66.5598 360.002Z" fill="#1FE627"/>
<path opacity="0.32" d="M293.443 18.1509C298.455 18.1509 302.518 14.0877 302.518 9.07546C302.518 4.06322 298.455 0 293.443 0C288.43 0 284.367 4.06322 284.367 9.07546C284.367 14.0877 288.43 18.1509 293.443 18.1509Z" fill="#1FE627"/>
<path opacity="0.32" d="M66.5598 18.1509C71.572 18.1509 75.6352 14.0877 75.6352 9.07546C75.6352 4.06322 71.572 0 66.5598 0C61.5476 0 57.4844 4.06322 57.4844 9.07546C57.4844 14.0877 61.5476 18.1509 66.5598 18.1509Z" fill="#1FE627"/>
<path opacity="0.6" d="M90.7633 108.904C80.7389 108.904 72.6125 100.777 72.6125 90.7525C72.6125 80.728 80.7389 72.6016 90.7633 72.6016C100.788 72.6016 108.914 80.728 108.914 90.7525C108.914 100.777 100.788 108.904 90.7633 108.904Z" fill="#1FE627"/>
<path opacity="0.6" d="M90.7633 287.396C80.7389 287.396 72.6125 279.269 72.6125 269.245C72.6125 259.22 80.7389 251.094 90.7633 251.094C100.788 251.094 108.914 259.22 108.914 269.245C108.914 279.269 100.788 287.396 90.7633 287.396Z" fill="#1FE627"/>
<path opacity="0.6" d="M51.4369 66.5564C43.0833 66.5564 36.3113 59.7843 36.3113 51.4305C36.3113 43.0768 43.0833 36.3047 51.4369 36.3047C59.7905 36.3047 66.5625 43.0768 66.5625 51.4305C66.5625 59.7843 59.7905 66.5564 51.4369 66.5564Z" fill="#1FE627"/>
<path opacity="0.6" d="M51.4369 323.697C43.0833 323.697 36.3113 316.925 36.3113 308.571C36.3113 300.217 43.0833 293.445 51.4369 293.445C59.7905 293.445 66.5625 300.217 66.5625 308.571C66.5625 316.925 59.7905 323.697 51.4369 323.697Z" fill="#1FE627"/>
<path opacity="0.32" d="M18.1512 27.2212C13.139 27.2212 9.0758 23.158 9.0758 18.1458C9.0758 13.1335 13.139 9.07031 18.1512 9.07031C23.1634 9.07031 27.2266 13.1335 27.2266 18.1458C27.2266 23.158 23.1634 27.2212 18.1512 27.2212Z" fill="#1FE627"/>
<path opacity="0.32" d="M18.1512 350.924C13.139 350.924 9.0758 346.861 9.0758 341.849C9.0758 336.837 13.139 332.773 18.1512 332.773C23.1634 332.773 27.2266 336.837 27.2266 341.849C27.2266 346.861 23.1634 350.924 18.1512 350.924Z" fill="#1FE627"/>
<path opacity="0.6" d="M96.8136 338.826C90.1307 338.826 84.7131 333.409 84.7131 326.726C84.7131 320.043 90.1307 314.625 96.8136 314.625C103.496 314.625 108.914 320.043 108.914 326.726C108.914 333.409 103.496 338.826 96.8136 338.826Z" fill="#1FE627"/>
<path opacity="0.6" d="M96.8136 45.381C90.1307 45.381 84.7131 39.9634 84.7131 33.2804C84.7131 26.5973 90.1307 21.1797 96.8136 21.1797C103.496 21.1797 108.914 26.5973 108.914 33.2804C108.914 39.9634 103.496 45.381 96.8136 45.381Z" fill="#1FE627"/>
<path opacity="0.6" d="M263.181 338.826C256.498 338.826 251.08 333.409 251.08 326.726C251.08 320.043 256.498 314.625 263.181 314.625C269.864 314.625 275.281 320.043 275.281 326.726C275.281 333.409 269.864 338.826 263.181 338.826Z" fill="#1FE627"/>
<path opacity="0.6" d="M263.181 45.381C256.498 45.381 251.08 39.9634 251.08 33.2804C251.08 26.5973 256.498 21.1797 263.181 21.1797C269.864 21.1797 275.281 26.5973 275.281 33.2804C275.281 39.9634 269.864 45.381 263.181 45.381Z" fill="#1FE627"/>
<path opacity="0.6" d="M326.712 275.295C320.029 275.295 314.612 269.877 314.612 263.194C314.612 256.511 320.029 251.094 326.712 251.094C333.395 251.094 338.812 256.511 338.812 263.194C338.812 269.877 333.395 275.295 326.712 275.295Z" fill="#1FE627"/>
<path opacity="0.6" d="M326.712 108.904C320.029 108.904 314.612 103.487 314.612 96.8038C314.612 90.1208 320.029 84.7031 326.712 84.7031C333.395 84.7031 338.812 90.1208 338.812 96.8038C338.812 103.487 333.395 108.904 326.712 108.904Z" fill="#1FE627"/>
<path opacity="0.6" d="M33.2823 275.295C26.5994 275.295 21.1819 269.877 21.1819 263.194C21.1819 256.511 26.5994 251.094 33.2823 251.094C39.9652 251.094 45.3828 256.511 45.3828 263.194C45.3828 269.877 39.9652 275.295 33.2823 275.295Z" fill="#1FE627"/>
<path opacity="0.6" d="M33.2823 108.904C26.5994 108.904 21.1819 103.487 21.1819 96.8038C21.1819 90.1208 26.5994 84.7031 33.2823 84.7031C39.9652 84.7031 45.3828 90.1208 45.3828 96.8038C45.3828 103.487 39.9652 108.904 33.2823 108.904Z" fill="#1FE627"/>
<path opacity="0.8" d="M133.115 157.317C146.481 157.317 157.316 146.481 157.316 133.115C157.316 119.749 146.481 108.914 133.115 108.914C119.749 108.914 108.914 119.749 108.914 133.115C108.914 146.481 119.749 157.317 133.115 157.317Z" fill="#1FE627"/>
<path opacity="0.8" d="M133.115 251.098C146.481 251.098 157.316 240.263 157.316 226.897C157.316 213.531 146.481 202.695 133.115 202.695C119.749 202.695 108.914 213.531 108.914 226.897C108.914 240.263 119.749 251.098 133.115 251.098Z" fill="#1FE627"/>
<path opacity="0.8" d="M226.888 251.098C240.254 251.098 251.09 240.263 251.09 226.897C251.09 213.531 240.254 202.695 226.888 202.695C213.523 202.695 202.688 213.531 202.688 226.897C202.688 240.263 213.523 251.098 226.888 251.098Z" fill="#1FE627"/>
</g>
<defs><clipPath id="clip0_1925_12520"><rect width="360" height="360" fill="white"/></clipPath></defs>
</svg>
